<?xml version="1.0" encoding="UTF-8"?>
<svg width="24px" height="24px" viewBox="0 0 24 24" version="1.1" xmlns="http://www.w3.org/2000/svg" xmlns:xlink="http://www.w3.org/1999/xlink">
    <!-- Generator: Sketch 48.2 (47327) - http://www.bohemiancoding.com/sketch -->
    <title>bell-white</title>
    <desc>Created with Sketch.</desc>
    <defs></defs>
    <g id="Page-1" stroke="none" stroke-width="1" fill="none" fill-rule="evenodd">
        <g id="bell-white" fill="#FFFFFF" fill-rule="nonzero">
            <g id="Group" transform="translate(5.000000, 3.000000)">
                <path d="M13.5668527,10.6557377 C13.4969205,10.6557377 11.818547,10.1584699 11.818547,8.52459016 L11.818547,5.3989071 C11.818547,5.3989071 11.818547,5.3989071 11.818547,5.3989071 C11.818547,3.55191257 10.6996313,2.20218579 9.02125773,1.63387978 C8.81146104,0.710382514 8.04220651,0 7.06315528,0 C6.15403628,0 5.31484952,0.639344262 5.17498506,1.56284153 C3.42667929,2.13114754 2.37769584,3.48087432 2.30776361,5.32786885 C2.30776361,5.32786885 2.30776361,5.32786885 2.30776361,5.32786885 L2.30776361,8.52459016 C2.30776361,10.0874317 0.559457844,10.5846995 0.489525613,10.6557377 C0.209796691,10.726776 0,11.010929 0,11.295082 C0,11.7923497 0,13 6.99322305,13 C13.9864461,13 13.9864461,11.863388 13.9864461,11.295082 C14.0563783,11.010929 13.8465816,10.726776 13.5668527,10.6557377 Z" id="Shape"></path>
                <path d="M8.31034483,14 L5.68965517,14 C5.34482759,14 5,14.3076923 5,14.7692308 C5,16 5.89655172,17 7,17 C8.10344828,17 9,16 9,14.7692308 C9,14.3076923 8.72413793,14 8.31034483,14 Z" id="Shape"></path>
            </g>
        </g>
    </g>
</svg>