<?xml version="1.0" encoding="UTF-8"?>
<svg width="66px" height="71px" viewBox="0 0 66 71" version="1.1" xmlns="http://www.w3.org/2000/svg" xmlns:xlink="http://www.w3.org/1999/xlink">
    <!-- Generator: Sketch 48.2 (47327) - http://www.bohemiancoding.com/sketch -->
    <title>magnifying-glass-white</title>
    <desc>Created with Sketch.</desc>
    <defs></defs>
    <g id="Page-1" stroke="none" stroke-width="1" fill="none" fill-rule="evenodd">
        <g id="magnifying-glass-white" fill="#FFFFFF" fill-rule="nonzero">
            <g id="Group">
                <path d="M25.156,0.875 C26.332,0.887 27.506,0.975 28.669,1.153 C30.827,1.483 32.938,2.109 34.927,3.009 C37.356,4.108 39.597,5.613 41.537,7.44 C43.508,9.298 45.165,11.485 46.415,13.888 C47.486,15.946 48.256,18.159 48.693,20.438 C49.184,22.997 49.257,25.636 48.911,28.218 C48.583,30.678 47.87,33.084 46.806,35.326 C45.581,37.907 43.894,40.264 41.85,42.259 C39.699,44.36 37.158,46.054 34.389,47.226 C31.474,48.46 28.321,49.104 25.156,49.125 C21.985,49.145 18.818,48.54 15.883,47.339 C13.098,46.201 10.535,44.536 8.358,42.46 C6.291,40.49 4.577,38.154 3.321,35.59 C2.231,33.364 1.49,30.971 1.131,28.519 C0.76,25.99 0.792,23.402 1.226,20.883 C1.613,18.64 2.32,16.454 3.321,14.41 C4.535,11.932 6.176,9.668 8.15,7.741 C10.09,5.846 12.349,4.28 14.806,3.132 C16.782,2.209 18.882,1.557 21.032,1.201 C22.191,1.009 23.36,0.905 24.534,0.879 C24.741,0.876 24.948,0.875 25.156,0.875 Z M24.884,7.125 C24.011,7.134 23.14,7.199 22.276,7.331 C20.681,7.575 19.12,8.038 17.649,8.703 C15.849,9.518 14.187,10.634 12.749,11.989 C11.313,13.342 10.101,14.932 9.18,16.676 C8.397,18.16 7.825,19.754 7.488,21.397 C7.085,23.364 7.017,25.4 7.283,27.39 C7.522,29.173 8.033,30.918 8.794,32.548 C9.706,34.5 10.975,36.282 12.516,37.788 C14.111,39.345 15.994,40.602 18.047,41.471 C20.206,42.385 22.54,42.86 24.884,42.875 C27.233,42.889 29.578,42.443 31.752,41.554 C33.816,40.71 35.716,39.475 37.329,37.937 C38.888,36.45 40.177,34.684 41.113,32.744 C41.893,31.126 42.425,29.39 42.685,27.613 C42.977,25.626 42.933,23.588 42.555,21.615 C42.232,19.93 41.662,18.294 40.87,16.772 C39.96,15.022 38.757,13.425 37.329,12.063 C35.925,10.725 34.305,9.615 32.548,8.794 C31.088,8.112 29.535,7.63 27.945,7.366 C27.086,7.224 26.218,7.148 25.347,7.128 C25.193,7.126 25.038,7.125 24.884,7.125 Z" id="Shape"></path>
            </g>
            <g id="Group" transform="translate(51.000000, 53.500000) rotate(-40.212489) translate(-51.000000, -53.500000) translate(47.000000, 33.000000)">
                <path d="M6.357,1.34275 C6.467,1.4785625 6.571,1.61352083 6.662,1.763 C6.843,2.06025 6.974,2.38654167 7.049,2.7265 C7.087,2.895625 7.111,3.06902083 7.12,3.24241667 C7.123,3.3005 7.123,3.35858333 7.125,3.41666667 L7.125,37.5833333 C7.12,37.7584375 7.111,37.930125 7.082,38.1026667 C7.026,38.4460417 6.912,38.7800208 6.748,39.0858125 C6.336,39.8562708 5.608,40.4285625 4.767,40.6438125 C4.489,40.7155625 4.201,40.7471667 3.914,40.7394792 C3.569,40.7300833 3.227,40.6626042 2.904,40.5404583 C2.528,40.3978125 2.179,40.1817083 1.883,39.9058125 C1.588,39.6307708 1.345,39.2985 1.174,38.9303542 C1.027,38.6160208 0.932,38.2769167 0.894,37.9309792 C0.877,37.7772292 0.879,37.7379375 0.875,37.5833333 L0.875,3.41666667 C0.88,3.2415625 0.889,3.069875 0.918,2.89733333 C0.974,2.55395833 1.088,2.21997917 1.252,1.9141875 C1.416,1.60754167 1.63,1.3299375 1.883,1.0941875 C2.095,0.897729167 2.333,0.7303125 2.589,0.599625 C3.363,0.204145833 4.284,0.152895833 5.096,0.459541667 C5.418,0.5816875 5.721,0.7585 5.987,0.979729167 C6.105,1.07795833 6.13,1.107 6.24,1.21547917 C6.279,1.2581875 6.318,1.30004167 6.357,1.34275 Z" id="Shape"></path>
            </g>
        </g>
    </g>
</svg>